<svg viewBox="0 0 28 28" fill="none" xmlns="http://www.w3.org/2000/svg">
  <polygon
    points="14,1 26,7.5 26,20.5 14,27 2,20.5 2,7.5"
    fill="#1A2040"
    stroke="#00D9FF"
    stroke-width="1.2"
  />
  <path
    d="M9,9.5 L7.5,9.5 Q6.5,9.5 6.5,10.5 L6.5,12.5 Q6.5,14 5,14 Q6.5,14 6.5,15.5 L6.5,17.5 Q6.5,18.5 7.5,18.5 L9,18.5"
    stroke="url(#sm-cg)"
    stroke-width="1.4"
    stroke-linecap="round"
    fill="none"
  />
  <path
    d="M19,9.5 L20.5,9.5 Q21.5,9.5 21.5,10.5 L21.5,12.5 Q21.5,14 23,14 Q21.5,14 21.5,15.5 L21.5,17.5 Q21.5,18.5 20.5,18.5 L19,18.5"
    stroke="url(#sm-cg)"
    stroke-width="1.4"
    stroke-linecap="round"
    fill="none"
  />
  <line
    x1="11.5" y1="18.5" x2="16.5" y2="9.5"
    stroke="#B24BF3"
    stroke-width="1.6"
    stroke-linecap="round"
  />
  <defs>
    <linearGradient id="sm-cg" x1="0%" y1="0%" x2="100%" y2="100%">
      <stop offset="0%"   stop-color="#00D9FF" />
      <stop offset="100%" stop-color="#00FFA3" />
    </linearGradient>
  </defs>
</svg>
